<?xml version="1.0" ?><!DOCTYPE svg  PUBLIC '-//W3C//DTD SVG 1.1//EN'  'http://www.w3.org/Graphics/SVG/1.1/DTD/svg11.dtd'><svg enable-background="new 0 0 48 48" height="48px" id="Layer_3" version="1.1" viewBox="0 0 48 48" width="48px" xml:space="preserve" xmlns="http://www.w3.org/2000/svg" xmlns:xlink="http://www.w3.org/1999/xlink"><g><polygon fill="#241F20" points="15.71,14.931 13.323,7.144 5.291,5.276 4.098,6.549 4.12,6.568 4.127,6.561 4.302,6.722    4.303,6.723 9.352,11.365 9.352,13.929 6.53,14.432 1.431,9.742 1.229,9.609 0.02,10.898 2.484,18.752 10.392,20.651    32.382,42.724 37.835,37.29 16.35,15.724  "/><polygon fill="#241F20" points="6.412,37.29 11.867,42.722 20.083,34.481 14.648,29.028  "/><path d="M47.98,18.694l-3.422-3.483l-0.989,0.972l-4.086-4.101c-0.003-0.003-0.006-0.005-0.009-0.008   c-8.008-8.196-16.667-6.601-16.667-6.601l7.66,7.688l-6.283,6.302l5.434,5.453l6.283-6.302l2.569,2.58l-0.975,0.958l3.421,3.482   l0.999-0.981l0.065,0.064l5.064-5.045l-0.031-0.03L47.98,18.694z" fill="#241F20"/></g></svg>