<svg xmlns="http://www.w3.org/2000/svg" height="20" width="20"><path d="M10 18q-1.646 0-3.104-.625-1.458-.625-2.552-1.719t-1.719-2.552Q2 11.646 2 10q0-1.667.625-3.115.625-1.447 1.719-2.541Q5.438 3.25 6.896 2.625T10 2q1.667 0 3.115.625 1.447.625 2.541 1.719 1.094 1.094 1.719 2.541Q18 8.333 18 10q0 1.646-.625 3.104-.625 1.458-1.719 2.552t-2.541 1.719Q11.667 18 10 18Zm0-1.562q.354-.355.708-1.323.354-.969.542-2.115h-2.5q.188 1.146.542 2.115.354.968.708 1.323Zm-1.896-.209q-.292-.625-.51-1.437-.219-.813-.365-1.792H4.25q.604 1.188 1.604 2.031 1 .844 2.25 1.198Zm3.792 0q1.25-.354 2.25-1.198 1-.843 1.604-2.031h-2.979q-.146.979-.365 1.792-.218.812-.51 1.437Zm1.062-4.729h3.354q.105-.396.146-.76.042-.365.042-.74t-.042-.75q-.041-.375-.146-.75h-3.354q.042.396.052.781.011.386.011.761t-.011.739q-.01.365-.052.719Zm-4.396 0h2.876q.041-.417.052-.781.01-.365.01-.719t-.01-.729q-.011-.375-.052-.771H8.562q-.041.396-.052.771-.01.375-.01.729t.01.729q.011.375.052.771Zm-4.874 0h3.354q-.042-.396-.052-.781-.011-.386-.011-.761t.011-.739q.01-.365.052-.719H3.688q-.105.396-.146.76-.042.365-.042.74t.042.74q.041.364.146.76ZM12.771 7h2.979q-.604-1.188-1.604-2.031-1-.844-2.25-1.198.292.625.51 1.437.219.813.365 1.792ZM8.75 7h2.5q-.188-1.146-.542-2.115-.354-.968-.708-1.323-.354.355-.708 1.323Q8.938 5.854 8.75 7Zm-4.5 0h2.979q.146-.979.365-1.792.218-.812.51-1.437-1.25.354-2.25 1.198-1 .843-1.604 2.031Z"/></svg>