<?xml version="1.0" encoding="UTF-8"?>
<svg version="1.1" viewBox="0 0 1024 1024" xmlns="http://www.w3.org/2000/svg" xmlns:bx="https://boxy-svg.com">
 <g>
  <path d="m269.75 31.954h484.5c131.74 0 237.8 106.06 237.8 237.8v484.5c0 131.74-106.06 237.8-237.8 237.8h-484.5c-131.74 0-237.8-106.06-237.8-237.8v-484.5c0-131.74 106.06-237.8 237.8-237.8z" color="#000000" fill="#6fb231" stroke-width="49.908" style="-inkscape-stroke:none"/>
  <path d="m269.75 7c-145.13 0-262.75 117.62-262.75 262.75v484.5c0 145.13 117.62 262.75 262.75 262.75h484.5c145.13 0 262.75-117.62 262.75-262.75v-484.5c0-145.13-117.62-262.75-262.75-262.75zm0 49.908h484.5c118.35 0 212.84 94.496 212.84 212.84v484.5c0 118.35-94.496 212.84-212.84 212.84h-484.5c-118.35 0-212.84-94.496-212.84-212.84v-484.5c0-118.35 94.496-212.84 212.84-212.84z" color="#000000" style="-inkscape-stroke:none"/>
 </g>
 <g transform="matrix(.9576 0 0 .9028 22.617 44.099)">
  <g stroke-linejoin="round">
   <path d="m364.94 424.27 56.121 167.52-98.518 272.95-145.54-0.93565z" color="#000000" stroke-width="46.782" style="-inkscape-stroke:none"/>
   <path d="m360.27 401.35a23.393 23.393 0 0 0-16.838 13.721l-187.94 439.53a23.393 23.393 0 0 0 21.357 32.588l145.54 0.93555a23.393 23.393 0 0 0 22.152-15.449l98.518-272.95a23.393 23.393 0 0 0 0.17774-15.373l-56.121-167.52a23.393 23.393 0 0 0-26.85-15.486zm2.0137 88.623 34.014 101.52-90.141 249.74-93.812-0.60156z" color="#000000" style="-inkscape-stroke:none"/>
  </g>
  <g stroke-linejoin="round">
   <path d="m421.06 591.78 161.02-446.11 264.82 718.12-334.96-5e-3 -90.882-272.01" color="#000000" fill="#fff" stroke-width="46.782" style="-inkscape-stroke:none"/>
   <path d="m587.65 122.96a23.393 23.393 0 0 0-27.576 14.771l-161.02 446.11 22 7.9414-22.184 7.4121 90.883 272.01a23.393 23.393 0 0 0 22.186 15.979l334.96 6e-3a23.393 23.393 0 0 0 21.945-31.485l-264.82-718.12a23.393 23.393 0 0 0-16.371-14.619zm-5.3398 90.957 231.03 626.48-284.56-4e-3 -82.967-248.32z" color="#000000" style="-inkscape-stroke:none"/>
  </g>
  <path d="m656.65 399.44-166.68 456.33 43.941 16.051 166.68-456.33z" color="#000000" style="-inkscape-stroke:none"/>
  <path d="m617.22 627.54-43.893 16.186 84.141 228.17 43.893-16.186z" color="#000000" style="-inkscape-stroke:none"/>
 </g>
</svg>
