<?xml version="1.0" encoding="UTF-8" standalone="no"?>
<svg
   xmlns:dc="http://purl.org/dc/elements/1.1/"
   xmlns:cc="http://creativecommons.org/ns#"
   xmlns:rdf="http://www.w3.org/1999/02/22-rdf-syntax-ns#"
   xmlns:svg="http://www.w3.org/2000/svg"
   xmlns="http://www.w3.org/2000/svg"
   viewBox="0 0 1365.3333 1365.3333"
   height="1365.3333"
   width="1365.3333"
   xml:space="preserve"
   id="svg2"
   version="1.1"><metadata
     id="metadata8"><rdf:RDF><cc:Work
         rdf:about=""><dc:format>image/svg+xml</dc:format><dc:type
           rdf:resource="http://purl.org/dc/dcmitype/StillImage" /><dc:title></dc:title></cc:Work></rdf:RDF></metadata><defs
     id="defs6"><clipPath
       id="clipPath18"
       clipPathUnits="userSpaceOnUse"><path
         id="path16"
         d="M 0,1024 H 1024 V 0 H 0 Z" /></clipPath></defs><g
     transform="matrix(1.3333333,0,0,-1.3333333,0,1365.3333)"
     id="g10"><g
       id="g12"><g
         clip-path="url(#clipPath18)"
         id="g14"><g
           transform="translate(269.7,992)"
           id="g20"><path
             id="path22"
             style="fill:#84c254;fill-opacity:1;fill-rule:nonzero;stroke:none"
             d="M 0,0 H 484.5 C 615.9,0 722.3,-106.4 722.3,-237.7 V -722.2 C 722.3,-853.6 615.9,-960 484.6,-960 H 0 c -131.3,0 -237.7,106.4 -237.7,237.7 v 484.6 C -237.7,-106.4 -131.3,0 0,0" /></g><g
           transform="translate(372.0439,596.8412)"
           id="g24"><path
             id="path26"
             style="fill:#000000;fill-opacity:1;fill-rule:nonzero;stroke:none"
             d="m 0,0 53.721,-151.22 -94.323,-246.375 -139.33,0.813 z" /></g><g
           transform="translate(372.0439,596.8412)"
           id="g28"><path
             id="path30"
             style="fill:none;stroke:#000000;stroke-width:35;stroke-linecap:butt;stroke-linejoin:round;stroke-miterlimit:4;stroke-dasharray:none;stroke-opacity:1"
             d="m 0,0 53.721,-151.22 -94.323,-246.375 -139.33,0.813 z" /></g><g
           transform="translate(425.8607,445.6216)"
           id="g32"><path
             id="path34"
             style="fill:#ffffff;fill-opacity:1;fill-rule:nonzero;stroke:none"
             d="M 0,0 154.173,402.741 407.744,-245.563 H 86.95 Z" /></g><g
           transform="translate(425.8607,445.6216)"
           id="g36"><path
             id="path38"
             style="fill:none;stroke:#000000;stroke-width:35;stroke-linecap:butt;stroke-linejoin:round;stroke-miterlimit:4;stroke-dasharray:none;stroke-opacity:1"
             d="M 0,0 154.173,402.741 407.744,-245.563 H 86.95 L 0,0" /></g><g
           transform="translate(672.4416,612.0084)"
           id="g40"><path
             id="path42"
             style="fill:#000000;fill-opacity:1;fill-rule:nonzero;stroke:#000000;stroke-width:35.00025088;stroke-linecap:butt;stroke-linejoin:miter;stroke-miterlimit:4;stroke-dasharray:none;stroke-opacity:1"
             d="M 0,0 -159.631,-411.95" /></g><g
           transform="translate(592.6739,406.0787)"
           id="g44"><path
             id="path46"
             style="fill:#000000;fill-opacity:1;fill-rule:nonzero;stroke:#000000;stroke-width:35;stroke-linecap:butt;stroke-linejoin:miter;stroke-miterlimit:4;stroke-dasharray:none;stroke-opacity:1"
             d="M 0,0 80.534,-206.02" /></g></g></g></g></svg>