<?xml version="1.0" encoding="utf-8"?>
<!-- Generator: Adobe Illustrator 16.0.0, SVG Export Plug-In . SVG Version: 6.00 Build 0)  -->
<!DOCTYPE svg PUBLIC "-//W3C//DTD SVG 1.1//EN" "http://www.w3.org/Graphics/SVG/1.1/DTD/svg11.dtd">
<svg version="1.1" id="Layer_1" xmlns="http://www.w3.org/2000/svg" xmlns:xlink="http://www.w3.org/1999/xlink" x="0px" y="0px"
	 width="32px" height="32px" viewBox="0 0 32 32" enable-background="new 0 0 32 32" xml:space="preserve">
<path fill="none" d="M0.035,0.035h31.93v31.93H0.035V0.035z"/>
<path fill="#434242" d="M14.671,22.651h2.659v-7.982h-2.659V22.651z M16,2.695C8.651,2.695,2.697,8.649,2.697,16
	S8.651,29.305,16,29.305S29.303,23.351,29.303,16S23.349,2.695,16,2.695z M16,26.643c-5.865,0-10.644-4.775-10.644-10.643
	S10.135,5.357,16,5.357c5.867,0,10.645,4.775,10.645,10.643S21.867,26.643,16,26.643z M14.671,12.009h2.659v-2.66h-2.659V12.009z"/>
</svg>
