<?xml version="1.0" encoding="UTF-8" standalone="no"?>
<!-- Generator: Adobe Illustrator 16.0.0, SVG Export Plug-In . SVG Version: 6.00 Build 0)  -->

<svg
   xmlns:dc="http://purl.org/dc/elements/1.1/"
   xmlns:cc="http://creativecommons.org/ns#"
   xmlns:rdf="http://www.w3.org/1999/02/22-rdf-syntax-ns#"
   xmlns:svg="http://www.w3.org/2000/svg"
   xmlns="http://www.w3.org/2000/svg"
   xmlns:sodipodi="http://sodipodi.sourceforge.net/DTD/sodipodi-0.dtd"
   xmlns:inkscape="http://www.inkscape.org/namespaces/inkscape"
   version="1.1"
   id="Layer_1"
   x="0px"
   y="0px"
   width="32px"
   height="32px"
   viewBox="0 0 32 32"
   enable-background="new 0 0 32 32"
   xml:space="preserve"
   sodipodi:docname="toolbar_zoom.svg"
   inkscape:version="0.92.3 (2405546, 2018-03-11)"
   inkscape:export-filename="D:\Development\ToolMap\art\toolbar_zoom.png"
   inkscape:export-xdpi="96"
   inkscape:export-ydpi="96"><metadata
   id="metadata7618"><rdf:RDF><cc:Work
       rdf:about=""><dc:format>image/svg+xml</dc:format><dc:type
         rdf:resource="http://purl.org/dc/dcmitype/StillImage" /></cc:Work></rdf:RDF></metadata><defs
   id="defs7616" /><sodipodi:namedview
   pagecolor="#ffffff"
   bordercolor="#666666"
   borderopacity="1"
   objecttolerance="10"
   gridtolerance="10"
   guidetolerance="10"
   inkscape:pageopacity="0"
   inkscape:pageshadow="2"
   inkscape:window-width="1165"
   inkscape:window-height="883"
   id="namedview7614"
   showgrid="false"
   inkscape:zoom="40.791716"
   inkscape:cx="7.574163"
   inkscape:cy="15.279931"
   inkscape:window-x="0"
   inkscape:window-y="0"
   inkscape:window-maximized="0"
   inkscape:current-layer="Layer_1" />
<path
   fill="#434242"
   d="M30.463,29.109l-1.354,1.354l-8.526-8.528c-2.079,1.785-4.733,2.76-7.473,2.743  c-3.077,0.05-6.039-1.169-8.191-3.367c-2.222-2.143-3.447-5.117-3.379-8.203c-0.045-3.077,1.181-6.037,3.39-8.179  c2.142-2.21,5.102-3.438,8.18-3.39c3.081-0.048,6.045,1.178,8.191,3.39c2.204,2.144,3.427,5.104,3.378,8.179  c0.006,2.739-0.975,5.389-2.765,7.461L30.463,29.109z M19.923,19.935c1.84-1.79,2.854-4.262,2.8-6.827  c0.041-2.562-0.97-5.03-2.8-6.826c-1.78-1.844-4.249-2.866-6.813-2.822c-2.569-0.047-5.042,0.976-6.826,2.822  c-1.848,1.786-2.87,4.258-2.823,6.826c-0.044,2.565,0.979,5.032,2.823,6.815c1.795,1.829,4.263,2.841,6.826,2.8  c2.561,0.051,5.028-0.965,6.813-2.8V19.935z M14.081,17.933h-1.92V14.08H8.262v-1.921h3.899V8.261h1.92v3.898h3.841v1.921h-3.841  V17.933z"
   id="path7611" />
</svg>