<?xml version="1.0" encoding="utf-8"?>
<!-- Generator: Adobe Illustrator 16.0.0, SVG Export Plug-In . SVG Version: 6.00 Build 0)  -->
<!DOCTYPE svg PUBLIC "-//W3C//DTD SVG 1.1//EN" "http://www.w3.org/Graphics/SVG/1.1/DTD/svg11.dtd">
<svg version="1.1" id="Layer_1" xmlns="http://www.w3.org/2000/svg" xmlns:xlink="http://www.w3.org/1999/xlink" x="0px" y="0px"
	 width="32px" height="32px" viewBox="0 0 32 32" enable-background="new 0 0 32 32" xml:space="preserve">
<path fill="#434242" d="M20.775,1.674l3.653,3.653l-4.584,4.576l2.252,2.252l4.576-4.583l3.653,3.653V1.674H20.775z M1.674,11.225
	l3.653-3.653l4.576,4.583l2.252-2.252L7.572,5.327l3.653-3.653H1.674V11.225z M11.225,30.326l-3.653-3.653l4.583-4.576l-2.252-2.252
	l-4.576,4.584l-3.653-3.653v9.551H11.225z M30.326,20.775l-3.653,3.653l-4.576-4.584l-2.252,2.252l4.584,4.576l-3.653,3.653h9.551
	V20.775z"/>
</svg>
