<?xml version="1.0" encoding="utf-8"?>
<!-- Generator: Adobe Illustrator 16.0.0, SVG Export Plug-In . SVG Version: 6.00 Build 0)  -->
<!DOCTYPE svg PUBLIC "-//W3C//DTD SVG 1.1//EN" "http://www.w3.org/Graphics/SVG/1.1/DTD/svg11.dtd">
<svg version="1.1" id="Layer_1" xmlns="http://www.w3.org/2000/svg" xmlns:xlink="http://www.w3.org/1999/xlink" x="0px" y="0px"
	 width="32px" height="32px" viewBox="0 0 32 32" enable-background="new 0 0 32 32" xml:space="preserve">
<path fill="none" stroke="#434242" stroke-width="1.5665" stroke-miterlimit="10" d="M28.512,10.691
	c-0.796-0.328-1.704,0.041-2.048,0.828L25.02,14.82c-0.193,0.427-0.697,0.617-1.126,0.423c-0.323-0.147-0.521-0.48-0.496-0.837
	l0.639-7.944c0.08-1.013-0.614-1.924-1.612-2.115c-0.546-0.108-1.111,0.023-1.555,0.358c-0.447,0.332-0.734,0.834-0.796,1.388
	l-0.738,6.881c0,0.476-0.386,0.862-0.861,0.862c-0.475,0-0.86-0.386-0.86-0.862l-0.549-9.176c-0.048-1.048-0.932-1.862-1.98-1.824
	c-1.051,0.005-1.898,0.863-1.891,1.914c0,0.006,0,0.015,0,0.022l0.324,10.003c0.006,0.183-0.067,0.358-0.201,0.481
	c-0.095,0.124-0.248,0.192-0.403,0.179c-0.284-0.021-0.522-0.219-0.593-0.493L10.608,7.67c-0.138-0.536-0.507-0.983-1.007-1.219
	c-0.545-0.239-1.167-0.239-1.712,0c-0.806,0.39-1.22,1.297-0.984,2.16l2.853,10.327c0.098,0.351-0.031,0.726-0.325,0.94
	c-0.327,0.262-0.792,0.262-1.119,0L5.08,16.992c-0.673-0.562-1.676-0.472-2.238,0.202c-0.492,0.59-0.492,1.445,0,2.036L11.1,29.3
	c0.38,0.461,0.946,0.727,1.544,0.727h8.952c0.836,0.002,1.586-0.516,1.881-1.298l5.918-15.934c0.348-0.799-0.018-1.729-0.816-2.077
	C28.556,10.709,28.533,10.7,28.512,10.691z"/>
</svg>
