<?xml version="1.0" encoding="UTF-8" standalone="no"?>
<!-- Generator: Adobe Illustrator 16.0.0, SVG Export Plug-In . SVG Version: 6.00 Build 0)  -->

<svg
   xmlns:dc="http://purl.org/dc/elements/1.1/"
   xmlns:cc="http://creativecommons.org/ns#"
   xmlns:rdf="http://www.w3.org/1999/02/22-rdf-syntax-ns#"
   xmlns:svg="http://www.w3.org/2000/svg"
   xmlns="http://www.w3.org/2000/svg"
   xmlns:sodipodi="http://sodipodi.sourceforge.net/DTD/sodipodi-0.dtd"
   xmlns:inkscape="http://www.inkscape.org/namespaces/inkscape"
   version="1.1"
   id="Layer_1"
   x="0px"
   y="0px"
   width="32px"
   height="32px"
   viewBox="0 0 32 32"
   enable-background="new 0 0 32 32"
   xml:space="preserve"
   sodipodi:docname="toolbar_pan.svg"
   inkscape:version="0.92.3 (2405546, 2018-03-11)"
   inkscape:export-filename="D:\Development\ToolMap\art\toolbar_pan.png"
   inkscape:export-xdpi="96"
   inkscape:export-ydpi="96"><metadata
   id="metadata6400"><rdf:RDF><cc:Work
       rdf:about=""><dc:format>image/svg+xml</dc:format><dc:type
         rdf:resource="http://purl.org/dc/dcmitype/StillImage" /></cc:Work></rdf:RDF></metadata><defs
   id="defs6398" /><sodipodi:namedview
   pagecolor="#ffffff"
   bordercolor="#666666"
   borderopacity="1"
   objecttolerance="10"
   gridtolerance="10"
   guidetolerance="10"
   inkscape:pageopacity="0"
   inkscape:pageshadow="2"
   inkscape:window-width="1349"
   inkscape:window-height="913"
   id="namedview6396"
   showgrid="false"
   inkscape:zoom="11.219848"
   inkscape:cx="-57.681451"
   inkscape:cy="-46.785301"
   inkscape:window-x="449"
   inkscape:window-y="171"
   inkscape:window-maximized="0"
   inkscape:current-layer="Layer_1" />
<path
   fill="none"
   stroke="#434242"
   stroke-width="1.5665"
   stroke-miterlimit="10"
   d="M28.512,10.691  c-0.796-0.328-1.704,0.041-2.048,0.828L25.02,14.82c-0.193,0.427-0.697,0.617-1.126,0.423c-0.323-0.147-0.521-0.48-0.496-0.837  l0.639-7.944c0.08-1.013-0.614-1.924-1.612-2.115c-0.546-0.108-1.111,0.023-1.555,0.358c-0.447,0.332-0.734,0.834-0.796,1.388  l-0.738,6.881c0,0.476-0.386,0.862-0.861,0.862c-0.475,0-0.86-0.386-0.86-0.862l-0.549-9.176c-0.048-1.048-0.932-1.862-1.98-1.824  c-1.051,0.005-1.898,0.863-1.891,1.914c0,0.006,0,0.015,0,0.022l0.324,10.003c0.006,0.183-0.067,0.358-0.201,0.481  c-0.095,0.124-0.248,0.192-0.403,0.179c-0.284-0.021-0.522-0.219-0.593-0.493L10.608,7.67c-0.138-0.536-0.507-0.983-1.007-1.219  c-0.545-0.239-1.167-0.239-1.712,0c-0.806,0.39-1.22,1.297-0.984,2.16l2.853,10.327c0.098,0.351-0.031,0.726-0.325,0.94  c-0.327,0.262-0.792,0.262-1.119,0L5.08,16.992c-0.673-0.562-1.676-0.472-2.238,0.202c-0.492,0.59-0.492,1.445,0,2.036L11.1,29.3  c0.38,0.461,0.946,0.727,1.544,0.727h8.952c0.836,0.002,1.586-0.516,1.881-1.298l5.918-15.934c0.348-0.799-0.018-1.729-0.816-2.077  C28.556,10.709,28.533,10.7,28.512,10.691z"
   id="path6393"
   style="stroke-width:1.9;stroke-miterlimit:10;stroke-dasharray:none" />
</svg>