<?xml version="1.0" encoding="utf-8"?>
<!-- Generator: Adobe Illustrator 16.0.0, SVG Export Plug-In . SVG Version: 6.00 Build 0)  -->
<!DOCTYPE svg PUBLIC "-//W3C//DTD SVG 1.1//EN" "http://www.w3.org/Graphics/SVG/1.1/DTD/svg11.dtd">
<svg version="1.1" id="Layer_1" xmlns="http://www.w3.org/2000/svg" xmlns:xlink="http://www.w3.org/1999/xlink" x="0px" y="0px"
	 width="32px" height="32px" viewBox="0 0 32 32" enable-background="new 0 0 32 32" xml:space="preserve">
<path fill="#434242" d="M30.463,29.109l-1.354,1.354l-8.526-8.528c-2.079,1.785-4.733,2.76-7.473,2.743
	c-3.077,0.05-6.039-1.169-8.191-3.367c-2.222-2.143-3.447-5.117-3.379-8.203c-0.045-3.077,1.181-6.037,3.39-8.179
	c2.142-2.21,5.102-3.438,8.18-3.39c3.081-0.048,6.045,1.178,8.191,3.39c2.204,2.144,3.427,5.104,3.378,8.179
	c0.006,2.739-0.975,5.389-2.765,7.461L30.463,29.109z M19.923,19.935c1.84-1.79,2.854-4.262,2.8-6.827
	c0.041-2.562-0.97-5.03-2.8-6.826c-1.78-1.844-4.249-2.866-6.813-2.822c-2.569-0.047-5.042,0.976-6.826,2.822
	c-1.848,1.786-2.87,4.258-2.823,6.826c-0.044,2.565,0.979,5.032,2.823,6.815c1.795,1.829,4.263,2.841,6.826,2.8
	c2.561,0.051,5.028-0.965,6.813-2.8V19.935z M14.081,17.933h-1.92V14.08H8.262v-1.921h3.899V8.261h1.92v3.898h3.841v1.921h-3.841
	V17.933z"/>
</svg>
