<svg width="40" height="40" version="1.1" xmlns="http://www.w3.org/2000/svg">
 <path d="m35.293 5.4062c-0.86133 0-1.5921 0.29915-2.1895 0.89648-0.59733 0.59733-0.89648 1.3132-0.89648 2.1465 0 0.16667 0.007485 0.31283 0.021485 0.4375 0.014 0.12533 0.048182 0.28452 0.10352 0.47852l-6.4141 6.416c-0.19467-0.055333-0.36133-0.082031-0.5-0.082031h-0.83594c-0.13867 0-0.30533 0.026698-0.5 0.082031l-4.457-4.457c0.055333-0.556 0.082031-0.86264 0.082031-0.91797 0-0.83333-0.2972-1.5472-0.89453-2.1445-0.59667-0.59733-1.3112-0.89648-2.1445-0.89648-0.83333 0-1.5492 0.29915-2.1465 0.89648-0.59733 0.59733-0.89648 1.3112-0.89648 2.1445v0.41797c0 0.13867 0.026698 0.30533 0.082031 0.5l-8.082 8.082c-0.19467-0.055333-0.35385-0.089516-0.47852-0.10352-0.12533-0.014-0.27279-0.021484-0.43945-0.021484-0.83333 0-1.5472 0.29915-2.1445 0.89648-0.59667 0.59733-0.89453 1.3268-0.89453 2.1875-1e-7 0.83333 0.29787 1.5492 0.89453 2.1465 0.59733 0.59733 1.3112 0.89453 2.1445 0.89453 0.86133 0 1.5921-0.2972 2.1895-0.89453 0.59733-0.59733 0.89648-1.3132 0.89648-2.1465 0-0.16667-0.0074844-0.31283-0.021484-0.4375-0.014-0.12533-0.048182-0.28452-0.10352-0.47852l8.082-8.084c0.55533 0.056 0.86197 0.083985 0.91797 0.083985h0.41406c0.13933 0 0.306-0.027985 0.5-0.083985l4.4609 4.459c-0.056 0.194-0.085938 0.36067-0.085938 0.5v0.41602c0 0.83333 0.29915 1.5492 0.89648 2.1465 0.59733 0.59733 1.3132 0.89453 2.1465 0.89453s1.5492-0.2972 2.1465-0.89453c0.59733-0.59733 0.89648-1.3132 0.89648-2.1465v-0.41602c0-0.13933-0.029938-0.306-0.085938-0.5l6.418-6.418c0.19467 0.055333 0.35385 0.091469 0.47852 0.10547 0.12533 0.014 0.27279 0.019531 0.43945 0.019531 0.83333 0 1.5472-0.2972 2.1445-0.89453 0.59667-0.59733 0.89453-1.3268 0.89453-2.1875 0-0.83333-0.29786-1.5492-0.89453-2.1465-0.59733-0.59733-1.3112-0.89648-2.1445-0.89648zm-13.127 17.357-9.9258 8.3105 0.19531 0.62109 4.8535 0.33398 3.0195 3.8164 0.62109-0.19531 1.2363-12.887z"/>
</svg>
