<svg width="40" height="40" version="1.1" xmlns="http://www.w3.org/2000/svg">
 <path d="m8.8965 5.4746c-0.10388-0.0012074-0.20915 0.0033101-0.31641 0.011719-0.83078 0.065133-1.5214 0.41902-2.0703 1.0605-0.54882 0.64219-0.78974 1.3782-0.72461 2.209 0.067321 0.8587 0.42031 1.5625 1.0625 2.1113 0.64219 0.54882 1.3802 0.78974 2.2109 0.72461 0.16616-0.01303 0.3104-0.030988 0.43359-0.054688 0.12386-0.02375 0.27967-0.07029 0.46875-0.14062l6.8984 5.8945c-0.03997 0.1984-0.053809 0.36762-0.042969 0.50586l0.001953 0.015625c-0.0085 0.1451-0.01187 0.29198 0 0.44336 0.0152 0.19382 0.049104 0.37817 0.095703 0.55664 0.0208 0.09405 0.048304 0.19465 0.089844 0.30664l0.007813 0.007812c0.17581 0.45481 0.46659 0.85325 0.86914 1.1973 0.40243 0.34391 0.84188 0.5671 1.3184 0.66992 0.28389 0.06126 0.58045 0.08096 0.89062 0.05664l0.41602-0.033203c0.13824-0.01084 0.30244-0.05071 0.49219-0.12109l8.6895 7.4258c-0.03996 0.1984-0.062206 0.36095-0.066406 0.48633-0.0042 0.12604 6.44e-4 0.27134 0.013672 0.4375 0.06513 0.83078 0.41835 1.5215 1.0605 2.0703 0.64214 0.54815 1.392 0.78797 2.25 0.7207 0.83078-0.06513 1.5214-0.41902 2.0703-1.0605 0.54882-0.64219 0.78974-1.3782 0.72461-2.209-0.06732-0.8587-0.42226-1.5625-1.0645-2.1113-0.64219-0.54882-1.3782-0.78974-2.209-0.72461-0.16616 0.01303-0.3104 0.030987-0.43359 0.054687-0.12386 0.02375-0.27967 0.07029-0.46875 0.14062l-8.6914-7.4258c0.0025-0.10994 1.08e-4 -0.091191 0.001953-0.18164 0.04431-0.25142 0.060352-0.51163 0.039062-0.7832-0.014979-0.19102-0.04827-0.37272-0.09375-0.54883-0.020949-0.09634-0.048666-0.19961-0.091796-0.31445l4.0977-4.793c3.86e-4 -0.0014-3.85e-4 -0.002506 0-0.003906 0.18723 0.03566 0.38087 0.054687 0.57812 0.054687 1.7035 0 3.0957-1.3922 3.0957-3.0957 0-1.7035-1.3922-3.0957-3.0957-3.0957-1.7035 3e-7 -3.0957 1.3922-3.0957 3.0957 0 0.44041 0.09429 0.86011 0.26172 1.2402l-4.0352 4.7227c-0.28445-0.06159-0.58172-0.081011-0.89258-0.056641l-0.41406 0.033203c-0.13891 0.01089-0.30316 0.05206-0.49219 0.12305l-6.8984-5.8965c0.03996-0.19839 0.062206-0.36095 0.066406-0.48633 0.0042-0.12604-6.44e-4 -0.27134-0.013672-0.4375-0.065139-0.83078-0.41836-1.5215-1.0605-2.0703-0.56187-0.47963-1.2064-0.72397-1.9336-0.73242zm8.1855 16.273-9.9258 8.3086 0.19336 0.62109 4.8555 0.33398 3.0176 3.8164 0.62109-0.19531 1.2383-12.885z"/>
</svg>
